<?xml version="1.0" encoding="UTF-8"?>
<svg version="1.1" viewBox="0 0 780 145" xml:space="preserve" xmlns="http://www.w3.org/2000/svg" xmlns:cc="http://creativecommons.org/ns#" xmlns:dc="http://purl.org/dc/elements/1.1/" xmlns:rdf="http://www.w3.org/1999/02/22-rdf-syntax-ns#" xmlns:xlink="http://www.w3.org/1999/xlink"><metadata><rdf:RDF><cc:Work rdf:about=""><dc:format>image/svg+xml</dc:format><dc:type rdf:resource="http://purl.org/dc/dcmitype/StillImage"/><dc:title/></cc:Work></rdf:RDF></metadata><defs><linearGradient id="o" x2="1" gradientTransform="matrix(0 39.016 39.016 0 224.75 150.42)" gradientUnits="userSpaceOnUse"><stop stop-color="#a33d3d" offset="0"/><stop stop-color="#cd3539" offset="1"/></linearGradient><linearGradient id="n" x2="1" gradientTransform="matrix(0 41 41 0 270.13 149.43)" gradientUnits="userSpaceOnUse"><stop stop-color="#a33d3d" offset="0"/><stop stop-color="#cd3539" offset="1"/></linearGradient><linearGradient id="m" x2="1" gradientTransform="matrix(0 39.016 39.016 0 308.87 150.42)" gradientUnits="userSpaceOnUse"><stop stop-color="#a33d3d" offset="0"/><stop stop-color="#cd3539" offset="1"/></linearGradient><linearGradient id="l" x2="1" gradientTransform="matrix(0 39.016 39.016 0 342.73 150.42)" gradientUnits="userSpaceOnUse"><stop stop-color="#a33d3d" offset="0"/><stop stop-color="#cd3539" offset="1"/></linearGradient><linearGradient id="k" x2="1" gradientTransform="matrix(0 39.016 39.016 0 378.68 150.42)" gradientUnits="userSpaceOnUse"><stop stop-color="#a33d3d" offset="0"/><stop stop-color="#cd3539" offset="1"/></linearGradient><linearGradient id="j" x2="1" gradientTransform="matrix(0 41 41 0 418.02 149.43)" gradientUnits="userSpaceOnUse"><stop stop-color="#a33d3d" offset="0"/><stop stop-color="#cd3539" offset="1"/></linearGradient><linearGradient id="i" x2="1" gradientTransform="matrix(0 41 41 0 463.87 149.43)" gradientUnits="userSpaceOnUse"><stop stop-color="#a33d3d" offset="0"/><stop stop-color="#cd3539" offset="1"/></linearGradient><linearGradient id="h" x2="1" gradientTransform="matrix(0 39.016 39.016 0 509.33 150.42)" gradientUnits="userSpaceOnUse"><stop stop-color="#a33d3d" offset="0"/><stop stop-color="#cd3539" offset="1"/></linearGradient><linearGradient id="g" x2="1" gradientTransform="matrix(0 41 41 0 547.68 149.43)" gradientUnits="userSpaceOnUse"><stop stop-color="#2d2d2d" offset="0"/><stop stop-color="#828383" offset="1"/></linearGradient><linearGradient id="f" x2="1" gradientTransform="matrix(0 39.016 39.016 0 586.88 150.42)" gradientUnits="userSpaceOnUse"><stop stop-color="#2d2d2d" offset="0"/><stop stop-color="#828383" offset="1"/></linearGradient><linearGradient id="e" x2="1" gradientTransform="matrix(0 39.016 39.016 0 625.4 150.42)" gradientUnits="userSpaceOnUse"><stop stop-color="#2d2d2d" offset="0"/><stop stop-color="#828383" offset="1"/></linearGradient><linearGradient id="d" x2="1" gradientTransform="matrix(0 41 41 0 660.97 149.43)" gradientUnits="userSpaceOnUse"><stop stop-color="#2d2d2d" offset="0"/><stop stop-color="#828383" offset="1"/></linearGradient><linearGradient id="c" x2="1" gradientTransform="matrix(0 39.016 39.016 0 700.59 150.42)" gradientUnits="userSpaceOnUse"><stop stop-color="#2d2d2d" offset="0"/><stop stop-color="#828383" offset="1"/></linearGradient><linearGradient id="b" x2="1" gradientTransform="matrix(0 59.479 59.479 0 168.11 153.1)" gradientUnits="userSpaceOnUse"><stop stop-color="#2d2d2d" offset="0"/><stop stop-color="#828383" offset="1"/></linearGradient><clipPath id="t"><path d="m97.262 123.72h-77.083v-107.7h77.083v107.7z"/></clipPath><clipPath id="r"><path d="m12.255 127.86h319.14v-149.48h-319.14v149.48z"/></clipPath><clipPath id="p"><path d="m23.151 21.6-1.891 96.624 8.555 4.412 61.143-1.621-1.17-96.083-6.754-7.924-59.883 4.592m77.533 90.951 1.351 0.45 61.233 0.27 3.242-1.981 0.18-15.849s6.535-0.064 11.737-2.437c5.062-2.309 9.065-7.018 9.065-7.018l0.36 27.915 61.864 0.181 4.052-2.342 0.091-17.83s5.546-0.123 10.154-2.12c4.531-1.965 8.125-5.804 8.125-5.804l0.091 4.052 43.043 0.09-0.18-68.438-42.773 0.271-0.09 27.375s-3.592-3.764-8.505-5.88c-4.11-1.77-9.685-1.955-9.685-1.955l-0.18-19-0.811-0.54-62.405-0.541-3.151 3.782-0.18 25.485s-4.517-4.848-9.756-7.136c-5.069-2.213-10.866-1.869-10.866-1.869l0.18-19.721-0.9-0.811-62.495-0.18-3.332 4.232 0.541 87.349m153.26-41.693-0.09-6.484s3.151 0.27 3.241 3.242-3.151 3.242-3.151 3.242m-87.169-5.583s3.782-0.181 3.602 3.421-3.512 3.152-3.512 3.152l-0.09-6.573" clip-rule="evenodd"/></clipPath><clipPath><path d="m21.26 122.64v-105.63h75.023v105.63h-75.023"/></clipPath><clipPath id="s"><path d="m85.748 400.39h-49.607v-49.474h49.607v49.474z"/></clipPath><clipPath id="q"><path d="m85.748 400.39h-49.607v-49.474h49.607v49.474z"/></clipPath><linearGradient id="a" x2="1" gradientTransform="matrix(0 108.39 108.39 0 181.62 103.96)" gradientUnits="userSpaceOnUse"><stop stop-color="#a33d3d" offset="0"/><stop stop-color="#cd3539" offset="1"/></linearGradient></defs><g transform="matrix(1.25,0,0,-1.25,0,815.1)"><path d="m13.623 641.73 3.784-73.22 45.597-28.38 88.546 25.73-0.7568 3.6-55.057 8.13-5.1084 47.68z" fill="#f1f1f1"/><g transform="translate(-100.41 434.22)"><path d="m234.64 189.44v-27.113h-0.11l-16.585 27.113h-11.682v-39.015h8.596v27.773h0.109l17.029-27.773h11.24v39.015h-8.597z" fill="url(#o)"/></g><g transform="translate(-100.41 434.22)"><path d="m249.08 169.93c0-12.512 8.875-20.502 21.053-20.502 12.176 0 21.049 7.99 21.049 20.502 0 12.511-8.873 20.498-21.049 20.498-12.178 0-21.053-7.987-21.053-20.498m8.93 0c0 7.271 4.795 12.564 12.123 12.564 7.326 0 12.12-5.293 12.12-12.564 0-7.272-4.794-12.564-12.12-12.564-7.328 0-12.123 5.292-12.123 12.564" fill="url(#n)"/></g><g transform="translate(-100.41 434.22)"><path d="m293.44 189.44v-7.605h11.13v-31.41h8.596v31.41h11.131v7.605h-30.857z" fill="url(#m)"/></g><g transform="translate(-100.41 434.22)"><path d="m328.98 189.44v-39.015h27.497v7.937h-18.9v7.93h16.913v7.937h-16.913v7.274h17.906v7.937h-26.503z" fill="url(#l)"/></g><g transform="translate(-100.41 434.22)"><path d="m363.36 189.44v-39.015h15.98c6.944 0 14.658 2.699 14.658 10.855 0 5.072-3.416 8.871-8.542 9.534v0.109c4.023 1.269 6.722 4.244 6.722 8.599 0 8.484-7.438 9.918-14.271 9.918h-14.547zm8.595-7.277h5.844c2.698 0 5.783-0.822 5.783-4.074 0-3.141-2.754-4.244-5.398-4.244h-6.229v8.318zm0-15.59h6.504c2.811 0 6.942-0.609 6.942-4.302 0-3.417-3.031-4.573-5.729-4.573h-7.717v8.875z" fill="url(#k)"/></g><g transform="translate(-100.41 434.22)"><path d="m396.97 169.93c0-12.512 8.871-20.502 21.048-20.502 12.181 0 21.052 7.99 21.052 20.502 0 12.511-8.871 20.498-21.052 20.498-12.177 0-21.048-7.987-21.048-20.498m8.929 0c0 7.271 4.79 12.564 12.119 12.564 7.33 0 12.125-5.293 12.125-12.564 0-7.272-4.795-12.564-12.125-12.564-7.329 0-12.119 5.292-12.119 12.564" fill="url(#j)"/></g><g transform="translate(-100.41 434.22)"><path d="m442.82 169.93c0-12.512 8.873-20.502 21.051-20.502 12.175 0 21.05 7.99 21.05 20.502 0 12.511-8.875 20.498-21.05 20.498-12.178 0-21.051-7.987-21.051-20.498m8.928 0c0 7.271 4.794 12.564 12.123 12.564s12.122-5.293 12.122-12.564c0-7.272-4.793-12.564-12.122-12.564s-12.123 5.292-12.123 12.564" fill="url(#i)"/></g><g transform="translate(-100.41 434.22)"><path d="m514.84 189.44-15.153-16.201v16.201h-8.594v-39.015h8.594v18.518l15.869-18.518h12.013l-18.846 20.888 17.357 18.127h-11.24z" fill="url(#h)"/></g><g transform="translate(-100.41 434.22)"><path d="m530.26 169.6c0-9.812 7.661-20.173 20.059-20.173 8.922 0 13.611 5.24 14.766 6.833l-4.459 3.366c-2.317-3.256-5.734-5.237-10.197-5.237-9.094 0-14.548 6.997-14.548 15.211 0 8.868 5.786 15.868 14.548 15.868 3.582 0 7.219-1.6 9.422-4.465l4.412 3.363c-3.147 4.133-8.543 6.061-13.669 6.061-12.011 0-20.334-8.706-20.334-20.827" fill="url(#g)"/></g><g transform="translate(-100.41 434.22)"><path d="m597 189.44v-16.201h-20.227v16.201h-5.291v-39.015h5.291v17.855h20.227v-17.855h5.287v39.015h-5.287z" fill="url(#f)"/></g><g transform="translate(-100.41 434.22)"><path d="m612.31 189.44v-39.015h26.174v4.959h-20.883v12.507h18.514v4.959h-18.514v11.631h19.891v4.959h-25.182z" fill="url(#e)"/></g><g transform="translate(-100.41 434.22)"><path d="m643.56 169.6c0-9.812 7.661-20.173 20.058-20.173 8.924 0 13.612 5.24 14.77 6.833l-4.465 3.366c-2.313-3.256-5.73-5.237-10.193-5.237-9.094 0-14.549 6.997-14.549 15.211 0 8.868 5.787 15.868 14.549 15.868 3.582 0 7.218-1.6 9.422-4.465l4.408 3.363c-3.141 4.133-8.539 6.061-13.668 6.061-12.008 0-20.332-8.706-20.332-20.827" fill="url(#d)"/></g><g transform="translate(-100.41 434.22)"><path d="m707.75 189.44-17.248-16.861h-0.438v16.861h-5.29v-39.015h5.29v19.508h0.438l18.186-19.508h7.714l-20.113 20.998 18.842 18.017h-7.381z" fill="url(#c)"/></g><g transform="matrix(13.389 0 0 13.389 -478.31 -4166.1)"><g clip-path="url(#t)"><g clip-path="url(#r)"><g clip-path="url(#p)"/></g></g></g><flowRoot transform="matrix(1.1984 0 0 -1.1984 5.5918 1194.6)" fill="#000000" font-family="'Times New Roman'" font-size="40px" font-weight="bold" letter-spacing="0px" word-spacing="0px" style="line-height:125%" xml:space="preserve"><flowRegion><rect x="175" y="-175.28" width="298" height="77"/></flowRegion><flowPara/></flowRoot><g transform="matrix(.98855 0 0 .98855 -99.195 435.39)"><path d="m112.06 211.89c-0.894-0.42-1.588-1.164-1.961-1.818-0.196-0.334-0.332-0.651-0.436-0.962-0.051-0.154-0.095-0.308-0.132-0.467l-0.051-0.249-0.023-0.143-0.029-0.239-0.025-0.209 0.016-0.314 0.966-18.332 1.005-18.33 2.129-36.653 0.111-1.901 1.611-0.969 25.072-15.062 12.552-7.505 3.143-1.867 1.572-0.934 0.393-0.233 0.237-0.139 0.271-0.153c0.368-0.2 0.746-0.382 1.134-0.543 1.556-0.649 3.246-0.942 4.867-0.908 0.812 0.016 1.611 0.108 2.392 0.266 0.391 0.079 0.777 0.176 1.167 0.293 0.195 0.058 0.39 0.122 0.589 0.192l0.307 0.115 0.156 0.063c6.83 2.014 13.643 4.084 20.462 6.137l20.663 6.229c6.888 2.075 13.757 4.221 20.636 6.328 6.874 2.123 13.759 4.211 20.62 6.383l0.371 0.118 0.229 0.198c0.411 0.355 0.821 0.779 1.162 1.337 0.339 0.55 0.587 1.27 0.588 2.006 0.01 0.737-0.21 1.416-0.506 1.96-0.149 0.275-0.32 0.523-0.503 0.752-0.092 0.114-0.187 0.223-0.289 0.33-0.113 0.117-0.184 0.191-0.366 0.348l-0.346 0.299-0.425 0.049-11.869 1.425-11.879 1.373c-3.961 0.446-7.917 0.922-11.882 1.343l-11.892 1.279 11.759-2.188c3.919-0.733 7.845-1.415 11.767-2.123l11.773-2.096 11.209-1.944c0.067-0.098 0.125-0.197 0.166-0.29 0.087-0.193 0.105-0.339 0.091-0.44-0.015-0.101-0.05-0.196-0.156-0.348-0.06-0.084-0.142-0.178-0.243-0.275-6.864-1.75-13.704-3.582-20.554-5.377-6.956-1.843-13.922-3.644-20.867-5.518l-20.839-5.617c-6.946-1.875-13.896-3.73-20.831-5.645l-0.214-0.059-0.2-0.091c2e-3 1e-3 -3e-3 -1e-3 -8e-3 -3e-3 -4e-3 -2e-3 -8e-3 -3e-3 -8e-3 -3e-3l-0.048-0.018-0.121-0.041-0.282-0.085c-0.196-0.054-0.401-0.1-0.609-0.136-0.414-0.076-0.835-0.113-1.24-0.111-0.816 4e-3 -1.572 0.164-2.262 0.47-0.173 0.076-0.342 0.162-0.508 0.259l-0.668 0.41-1.552 0.968-3.104 1.932-12.436 7.696-23.284 14.342-1.894 34.787-1.059 18.328-0.9 15.049 4.478-0.944 9.561-1.998 19.128-3.968 19.139-3.916 18.61-3.729 0.332-2.741 0.722-5.947c0.486-3.963 0.943-7.93 1.457-11.89l2.772-21.824c-4.695-0.485-9.386-1.005-14.079-1.515l-16.106-1.759-16.099-1.844c-5.365-0.637-10.73-1.265-16.091-1.941 5.4 0.21 10.795 0.469 16.191 0.719l16.184 0.816 16.176 0.899c5.393 0.303 10.786 0.594 16.174 0.939l1.956 0.125-0.174 2.027-2.036 23.875c-0.329 3.98-0.716 7.953-1.071 11.931l-0.543 5.965-0.272 2.983-0.033 0.373-0.018 0.187-0.043 0.341c-0.082 0.514-0.247 1.111-0.619 1.722-0.362 0.611-0.961 1.183-1.616 1.522-0.328 0.175-0.662 0.296-0.995 0.379-0.168 0.042-0.335 0.072-0.509 0.094-0.041 5e-3 -0.082 0.01-0.124 0.014l-18.837 4.351-19.052 4.319-19.063 4.265-9.535 2.12-4.769 1.052-2.385 0.525c-4e-3 -0.012-0.172 0.043-0.456 0.099-0.257 0.051-0.61 0.102-1.023 0.102-0.586 0-1.293-0.103-2.017-0.454m75.5-21.01v2e-3s0 0.012 5e-3 -0.032l3e-3 -0.024c-6e-3 0.028-8e-3 0.046-8e-3 0.054" fill="url(#a)"/></g><path d="m158.88 591.89c0.1654 0.0374 0.79425 1.1859 0.54459 2.4319-0.24811 1.2421-1.427 2.5934-1.4762 2.3843-0.26371-1.1173-0.86681-1.5721-0.61714-2.8166 0.2481-1.2468 1.3818-2.0356 1.5487-1.9997" fill="#e4b5b5"/><path d="m160.19 594.24c-0.0187-1.1453-0.50947-1.7204 7.6e-4 -2.8836 0.50948-1.1633 1.7867-1.6915 1.9427-1.6174 0.15448 0.071 0.52039 1.3264 0.0109 2.4904-0.51026 1.1602-1.9497 2.2267-1.9544 2.0106" fill="#e4b5b5"/><path d="m156.27 593.69c-1.1446 0.68971-2.5255 0.59218-2.6293 0.46267-0.10065-0.12796 0.252-1.402 1.3942-2.091 1.1438-0.69361 1.8296-0.35032 3.042-0.55161 0.2247-0.0367-0.66473 1.4894-1.807 2.1799" fill="#e4b5b5"/><path d="m159.51 590.74c-1.2592 0.44784-2.5934 0.0733-2.6683-0.0726-0.0726-0.14667 0.52742-1.3248 1.7843-1.7726 1.26-0.44862 1.8624 0.0265 3.0904 0.0726 0.2286 7e-3 -0.94873 1.324-2.2064 1.7726" fill="#e4b5b5"/><path d="m156.16 594.83c0.17086 5e-3 1.0377 1.0096 1.0697 2.2774 0.0297 1.267-0.82546 2.8103-0.91986 2.616-0.50402-1.0431-1.1937-1.3763-1.2249-2.6433-0.032-1.2671 0.90348-2.2579 1.0751-2.2501" fill="#e4b5b5"/><path d="m154.06 597.17c-0.92767 0.93079-2.2938 1.1414-2.4241 1.0408-0.13341-0.10065-0.12483-1.4192 0.80439-2.3484 0.92845-0.9261 1.6806-0.749 2.8033-1.214 0.20831-0.085-0.25669 1.5963-1.1836 2.5216" fill="#e4b5b5"/><path d="m154.33 598.68c0.16774-0.0359 1.2717 0.7373 1.6345 1.9614 0.36436 1.2234-0.057 2.9172-0.19895 2.7494-0.76461-0.89568-1.5206-1.0634-1.8858-2.2837-0.36279-1.2195 0.28322-2.396 0.45019-2.4272" fill="#e4b5b5"/><path d="m152.94 600.96c-0.65381 1.1118-1.9193 1.6345-2.0754 1.5635-0.15448-0.0655-0.49231-1.3466 0.1615-2.4584 0.65538-1.1118 1.4325-1.1141 2.3945-1.8233 0.18179-0.13186 0.17555 1.608-0.48061 2.7182" fill="#e4b5b5"/><path d="m156.69 613.32c0.0866-0.13731 1.4535-0.35109 2.6652 0.24109 1.0244 0.50011 1.9334 1.6096 2.0496 1.931 0.0109 0.0289 0.0133 0.0609-3e-3 0.0742-0.0156 0.0141-0.0491 9e-3 -0.0562 9e-3 -1.3232-0.25513-2.0629 0.0921-3.0444-0.34174-1.2343-0.54692-1.7001-1.7765-1.6111-1.9138" fill="#e4b5b5"/><path d="m154.46 610.24c0.0905-0.13575 1.4613-0.31832 2.659 0.3035 1.0119 0.5243 1.8936 1.6556 2.0036 1.9802 9e-3 0.0265 0.0109 0.0609-6e-3 0.0741-0.0156 0.0125-0.0492 9e-3 -0.0554 8e-3 -1.3178-0.28712-2.0644 0.0413-3.035-0.41507-1.221-0.5758-1.6579-1.8163-1.5659-1.9505" fill="#e4b5b5"/><path d="m157.28 609.79c-0.0187 0.0102-0.0515 2e-3 -0.0585 0-1.5916-0.57579-1.9677-0.37918-2.861-1.0938-1.0517-0.84496-1.2015-2.1456-1.0806-2.2571 0.11781-0.11002 1.4941 0.0242 2.5201 0.90114 0.86681 0.74198 1.4676 2.0418 1.5011 2.3828 3e-3 0.0305-2e-3 0.0578-0.0211 0.0671" fill="#e4b5b5"/><path d="m155.39 603.99c0.69283 0.90582 1.008 2.3047 0.9698 2.6426-2e-3 0.032-0.0156 0.0608-0.0367 0.0671-0.0203 5e-3 -0.0484-0.0141-0.0531-0.0172-1.04-0.61871-1.846-0.78177-2.5708-1.6689-0.85277-1.0447-0.7256-2.3492-0.58438-2.4319 0.13888-0.0843 1.4566 0.33627 2.2751 1.4083" fill="#e4b5b5"/><path d="m155.82 613.92c0.0117-0.0249 0.0476-0.0289 0.0905-5e-3 0.22236 0.0991 1.3498 1.1594 1.718 2.1916 0.43223 1.2023-0.0219 2.4132-0.18179 2.4717-0.15838 0.0562-1.3654-0.58516-1.7758-1.7968-0.37606-1.1102 0.0351-1.6416 0.13341-2.7783 2e-3 -0.0132 2e-3 -0.064 0.0156-0.0835" fill="#e4b5b5"/><path d="m153.75 610.64c0.0187-0.0195 0.0538-0.0172 0.0882 0.0187 0.19505 0.14825 1.0494 1.4372 1.1711 2.5255 0.1459 1.2678-0.57423 2.3453-0.74275 2.3648-0.16697 0.0195-1.1953-0.88164-1.317-2.1565-0.11156-1.1656 0.41039-1.5885 0.76695-2.673 5e-3 -0.0125 0.0164-0.0624 0.0335-0.0796" fill="#e4b5b5"/><path d="m152.47 606.82c8e-3 -0.0117 0.0297-0.0585 0.0507-0.0702 0.0211-0.0163 0.0554-5e-3 0.0827 0.0367 0.15526 0.18959 0.7014 1.6361 0.57657 2.7253-0.14278 1.2694-1.0837 2.1549-1.253 2.1378-0.16697-0.0179-0.96668-1.1274-0.80128-2.3945 0.15214-1.1648 0.75446-1.459 1.3443-2.435" fill="#e4b5b5"/><g transform="matrix(.78021 0 0 .78021 122.1 311.63)" clip-path="url(#s)" fill="#e4b5b5"><g transform="translate(38.714 372.95)" fill="#e4b5b5"><path d="m0 0c0.013-0.014 0.054-0.065 0.084-0.072 0.031-0.016 0.07 7e-3 0.094 0.069 0.141 0.275 0.421 2.239-0.037 3.566-0.53 1.548-1.955 2.4-2.162 2.33-0.205-0.069-0.896-1.678-0.337-3.221 0.512-1.411 1.351-1.615 2.358-2.672" fill="#e4b5b5"/></g></g><path d="m158.6 616.21c0.47671-9e-3 1.8826 0.25981 2.797 0.86915 1.1477 0.76616 1.5581 2.0395 1.459 2.1776-0.0944 0.13653-1.5612 0.2996-2.7089-0.46891-0.85666-0.57033-1.0845-1.1235-1.3833-1.7882-0.0874-0.18803-0.15214-0.34408-0.24031-0.59686-0.0125-0.0491-0.0453-0.18959 0.0765-0.19271" fill="#e4b5b5"/><path d="m180.42 591.89c0.16774-0.0359 1.3014 0.7529 1.5495 1.9997 0.25044 1.2444-0.35422 1.6993-0.61792 2.8166-0.0484 0.20909-1.2273-1.1422-1.4762-2.3843-0.24888-1.246 0.37918-2.3945 0.54459-2.4319" fill="#e4b5b5"/><path d="m179.11 591.36c0.51103 1.1633 0.0195 1.7375 7.5e-4 2.8836-4e-3 0.21534-1.4434-0.85043-1.9536-2.0106-0.51026-1.1648-0.14356-2.4194 0.0109-2.4912 0.15604-0.0733 1.4325 0.45486 1.9419 1.6182" fill="#e4b5b5"/><path d="m183.02 593.69c-1.1422-0.69048-2.0316-2.2166-1.8062-2.1799 1.2124 0.20129 1.8982-0.142 3.042 0.55161 1.1422 0.68892 1.4941 1.963 1.3934 2.091-0.10376 0.12951-1.484 0.22704-2.6293-0.46267" fill="#e4b5b5"/><path d="m179.79 590.74c-1.2577-0.44862-2.435-1.7656-2.2064-1.7726 1.2288-0.0461 1.8311-0.52118 3.0904-0.0726 1.2577 0.44784 1.8569 1.626 1.7836 1.7726-0.0741 0.14591-1.4075 0.52041-2.6675 0.0726" fill="#e4b5b5"/><path d="m183.13 594.83c0.17164-8e-3 1.1071 0.98306 1.0744 2.2501-0.0312 1.267-0.72013 1.6002-1.2249 2.6433-0.0944 0.19427-0.94951-1.349-0.91986-2.616 0.0328-1.2678 0.89879-2.272 1.0704-2.2774" fill="#e4b5b5"/><path d="m185.24 597.17c-0.92767-0.92532-1.3919-2.6067-1.1836-2.5216 1.1235 0.465 1.8748 0.2879 2.8033 1.214 0.92923 0.92923 0.9378 2.2478 0.80439 2.3484-0.13107 0.10064-1.4964-0.11002-2.4241-1.0408" fill="#e4b5b5"/><path d="m184.96 598.68c0.16696 0.0312 0.81219 1.2078 0.44939 2.4272-0.36513 1.2202-1.1204 1.388-1.885 2.2837-0.142 0.16775-0.56332-1.5261-0.19974-2.7494 0.36358-1.2241 1.4668-1.9973 1.6353-1.9614" fill="#e4b5b5"/><path d="m188.43 602.53c-0.15605 0.071-1.4215-0.45174-2.0746-1.5635-0.65616-1.111-0.6624-2.8501-0.48061-2.719 0.96121 0.71 1.7391 0.71233 2.3937 1.8241s0.31677 2.3929 0.16151 2.4584" fill="#e4b5b5"/><path d="m177.95 615.58c-6e-3 0-0.0406 5e-3 -0.0554-9e-3 -0.0164-0.0132-0.0148-0.0453-4e-3 -0.0749 0.11703-0.32066 1.0252-1.4309 2.0504-1.9302 1.2117-0.59218 2.5778-0.3784 2.6652-0.24108 0.0889 0.13731-0.37762 1.3669-1.6111 1.9131-0.9815 0.43458-1.7211 0.0874-3.0452 0.34251" fill="#e4b5b5"/><path d="m180.23 612.61c-7e-3 2e-3 -0.0398 5e-3 -0.0562-8e-3 -0.0172-0.0132-0.0156-0.0476-5e-3 -0.0742 0.11-0.32456 0.99086-1.4559 2.0028-1.9802 1.1984-0.62183 2.5692-0.43926 2.659-0.30351 0.0928 0.1342-0.34408 1.3747-1.5651 1.9505-0.97058 0.45642-1.718 0.12796-3.035 0.41508" fill="#e4b5b5"/><path d="m183.49 607.34c1.0252-0.87696 2.4015-1.0112 2.5201-0.90114 0.12015 0.11156-0.0297 1.413-1.0806 2.2571-0.89411 0.71545-1.2694 0.51806-2.8618 1.0938-7e-3 2e-3 -0.0398 0.0102-0.0577 0-0.0195-9e-3 -0.025-0.0367-0.0219-0.0671 0.0336-0.34095 0.63509-1.6408 1.5019-2.3828" fill="#e4b5b5"/><path d="m186.18 602.58c0.14122 0.0819 0.26683 1.3864-0.58438 2.4311-0.72559 0.88787-1.5315 1.0509-2.5708 1.6696-5e-3 4e-3 -0.0335 0.0211-0.0546 0.0172-0.0203-6e-3 -0.0336-0.0359-0.0367-0.0671-0.0375-0.33783 0.27697-1.7375 0.97057-2.6426 0.81766-1.072 2.1362-1.4925 2.2759-1.4083" fill="#e4b5b5"/><path d="m183.39 613.92c0.0429-0.0242 0.0796-0.0203 0.0905 5e-3 0.014 0.0195 0.014 0.0702 0.0164 0.0835 0.0983 1.1368 0.50947 1.6681 0.13341 2.7783-0.41038 1.2117-1.6174 1.853-1.7758 1.7968-0.15994-0.0585-0.61402-1.2694-0.18179-2.4717 0.36826-1.0322 1.4957-2.0917 1.7172-2.1916" fill="#e4b5b5"/><path d="m185.46 610.66c0.0351-0.0352 0.0702-0.0383 0.0882-0.0187 0.0179 0.0172 0.0289 0.0679 0.0343 0.0796 0.35655 1.0845 0.87851 1.5074 0.76616 2.673-0.12171 1.2748-1.15 2.176-1.3154 2.1565-0.1693-0.0195-0.88943-1.097-0.74432-2.3648 0.12172-1.0884 0.97682-2.3773 1.1711-2.5255" fill="#e4b5b5"/><path d="m186.7 606.79c0.0265-0.0414 0.0609-0.0538 0.0819-0.0367 0.0211 0.0117 0.0437 0.0585 0.0507 0.0702 0.58905 0.97604 1.1929 1.2702 1.3443 2.435 0.16618 1.2671-0.63431 2.3765-0.80049 2.3944-0.17009 0.0172-1.111-0.86836-1.253-2.1385-0.12484-1.0884 0.42053-2.5349 0.57657-2.7245" fill="#e4b5b5"/><g transform="matrix(.78021 0 0 .78021 122.1 311.63)" clip-path="url(#q)" fill="#e4b5b5"><g transform="translate(85.197 378.84)" fill="#e4b5b5"><path d="m0 0c-0.207 0.07-1.631-0.781-2.162-2.33-0.458-1.327-0.178-3.29-0.036-3.566 0.023-0.061 0.061-0.085 0.093-0.069 0.029 8e-3 0.071 0.059 0.083 0.072 1.009 1.057 1.847 1.261 2.359 2.673 0.559 1.542-0.132 3.151-0.337 3.22" fill="#e4b5b5"/></g></g><path d="m177.9 617.08c0.9144-0.60934 2.3203-0.87851 2.797-0.86915 0.12249 3e-3 0.0897 0.14356 0.0765 0.19271-0.0882 0.25278-0.15371 0.40883-0.24031 0.59686-0.29882 0.66474-0.52664 1.2179-1.3825 1.789-1.1477 0.76773-2.616 0.60466-2.7096 0.46891-0.0999-0.13888 0.31052-1.4122 1.459-2.1783" fill="#e4b5b5"/><text transform="scale(1,-1)" x="169.57939" y="-598.75806" fill="#2f2f2f" font-family="'Times New Roman'" font-weight="bold" letter-spacing="0px" stroke-width=".059921" text-align="center" text-anchor="middle" word-spacing="0px" style="line-height:125%" xml:space="preserve"><tspan x="169.57939" y="-598.75806" font-size="17.4px" style="line-height:44%">14</tspan><tspan x="169.57939" y="-595.87903" font-size="3.4px" style="line-height:44%">years</tspan></text>
<g transform="matrix(.98855 0 0 .98855 -99.195 435.39)"><path d="m161.42 169.59s-3.563 8.068-9.16 13.53c-5.856 5.715-9.174 3.126-10.872 2.956-1.719-0.171-7.226-3.233-7.226-3.233 12.9-1.895 23.453-29.736 23.453-29.736 5.496 5.584 9.56 6.803 9.56 6.803 15.892 32.952 34.265 48.573 34.265 48.573l0.613 4.103c-18.734-10.2-40.633-42.996-40.633-42.996" fill="url(#b)"/></g></g></svg>